<svg width="80" height="65" viewBox="0 0 80 65" fill="none" xmlns="http://www.w3.org/2000/svg">
<rect x="39.2465" y="29.0826" width="2.28305" height="31.8304" fill="#1689FE" stroke="#1689FE"/>
<rect x="23.1523" y="44.9978" width="1.64152" height="33.6512" transform="rotate(-90 23.1523 44.9978)" fill="#1689FE" stroke="#1689FE" stroke-width="1.64152"/>
<path d="M28.8887 16.9191C28.275 16.8766 27.6361 17.0338 27.1309 17.5294C26.656 17.9956 26.4168 18.6482 26.3125 19.3546C26.0925 20.8471 26.5378 22.1122 27.3799 23.1203C28.1956 24.0965 29.3603 24.8097 30.5869 25.3332C33.0401 26.38 36.0478 26.7981 38.0625 26.8742L40.2578 26.9572L38.8789 25.2472C37.2082 23.175 34.6236 20.3207 32.3291 18.5734C31.7509 18.1331 31.1706 17.7472 30.6113 17.4601C30.0621 17.1782 29.472 16.9597 28.8887 16.9191ZM28.75 18.9142C28.9533 18.9284 29.2676 19.0184 29.6982 19.2394C30.119 19.4554 30.5976 19.7688 31.1182 20.1652C32.623 21.3112 34.3124 23.0243 35.752 24.6496C34.2984 24.4363 32.7185 24.0679 31.3721 23.4933C30.2984 23.0351 29.4494 22.4787 28.9141 21.838C28.4054 21.229 28.1612 20.5273 28.291 19.6466C28.3618 19.1676 28.4889 18.9997 28.5322 18.9572C28.5454 18.944 28.5799 18.9025 28.75 18.9142Z" fill="#1689FE"/>
<path d="M52.1912 16.9189C52.8048 16.8764 53.4437 17.0336 53.949 17.5292C54.4238 17.9954 54.663 18.648 54.7673 19.3544C54.9873 20.8469 54.542 22.112 53.7 23.1201C52.8843 24.0963 51.7195 24.8095 50.4929 25.333C48.0398 26.3798 45.032 26.7979 43.0173 26.874L40.822 26.957L42.2009 25.247C43.8716 23.1748 46.4562 20.3205 48.7507 18.5732C49.3289 18.1329 49.9093 17.747 50.4685 17.4599C51.0177 17.178 51.6079 16.9595 52.1912 16.9189ZM52.3298 18.914C52.1265 18.9282 51.8122 19.0182 51.3816 19.2392C50.9608 19.4552 50.4822 19.7686 49.9617 20.165C48.4569 21.311 46.7675 23.0241 45.3279 24.6494C46.7814 24.4361 48.3614 24.0677 49.7078 23.4931C50.7814 23.0349 51.6304 22.4785 52.1658 21.8378C52.6744 21.2288 52.9186 20.5271 52.7888 19.6464C52.7181 19.1673 52.5909 18.9995 52.5476 18.957C52.5344 18.9438 52.4999 18.9023 52.3298 18.914Z" fill="#1689FE"/>
<rect x="23.8313" y="30.0826" width="32.2927" height="24.9059" rx="1.5" stroke="#1689FE" stroke-width="3"/>
<path d="M7.6427 0C2.43017 16.519 7.99155 35.1029 22.6993 45.6045C41.0343 58.6954 66.637 54.2679 79.8839 35.7148C79.9234 35.6594 79.9609 35.6024 80.0001 35.5469C78.7147 39.6201 76.7766 43.5684 74.1564 47.2383C60.9094 65.7914 35.3077 70.219 16.9728 57.1279C-1.30664 44.076 -5.46022 18.5397 7.6427 0Z" fill="#414141"/>
</svg>
